<mxfile host="app.diagrams.net" modified="2024-07-17T08:34:11.079Z" agent="Mozilla/5.0 (Macintosh; Intel Mac OS X 10_15_7) AppleWebKit/537.36 (KHTML, like Gecko) Chrome/126.0.0.0 Safari/537.36" etag="zu7OWlokrLqIcsgtf4nK" version="24.7.0" type="github">
  <diagram name="Page-1" id="ZcOhmGHv4sRR9xuTIjbq">
    <mxGraphModel dx="968" dy="684" grid="1" gridSize="10" guides="1" tooltips="1" connect="1" arrows="1" fold="1" page="1" pageScale="1" pageWidth="850" pageHeight="1100" math="0" shadow="0">
      <root>
        <mxCell id="0" />
        <mxCell id="1" parent="0" />
        <mxCell id="ujBAATEU8BTA8kRRQ1sV-8" style="edgeStyle=orthogonalEdgeStyle;rounded=0;orthogonalLoop=1;jettySize=auto;html=1;exitX=1;exitY=0.5;exitDx=0;exitDy=0;entryX=0;entryY=0.5;entryDx=0;entryDy=0;" edge="1" parent="1" source="ujBAATEU8BTA8kRRQ1sV-5" target="ujBAATEU8BTA8kRRQ1sV-6">
          <mxGeometry relative="1" as="geometry" />
        </mxCell>
        <mxCell id="ujBAATEU8BTA8kRRQ1sV-5" value="" style="rounded=0;whiteSpace=wrap;html=1;" vertex="1" parent="1">
          <mxGeometry x="200" y="320" width="120" height="60" as="geometry" />
        </mxCell>
        <mxCell id="ujBAATEU8BTA8kRRQ1sV-9" style="edgeStyle=orthogonalEdgeStyle;rounded=0;orthogonalLoop=1;jettySize=auto;html=1;exitX=1;exitY=0.5;exitDx=0;exitDy=0;entryX=0;entryY=0.5;entryDx=0;entryDy=0;" edge="1" parent="1" source="ujBAATEU8BTA8kRRQ1sV-6" target="ujBAATEU8BTA8kRRQ1sV-7">
          <mxGeometry relative="1" as="geometry" />
        </mxCell>
        <mxCell id="ujBAATEU8BTA8kRRQ1sV-6" value="" style="rounded=0;whiteSpace=wrap;html=1;" vertex="1" parent="1">
          <mxGeometry x="360" y="320" width="120" height="60" as="geometry" />
        </mxCell>
        <mxCell id="ujBAATEU8BTA8kRRQ1sV-11" style="edgeStyle=orthogonalEdgeStyle;rounded=0;orthogonalLoop=1;jettySize=auto;html=1;exitX=1;exitY=0.5;exitDx=0;exitDy=0;entryX=0;entryY=0.5;entryDx=0;entryDy=0;" edge="1" parent="1" source="ujBAATEU8BTA8kRRQ1sV-7" target="ujBAATEU8BTA8kRRQ1sV-10">
          <mxGeometry relative="1" as="geometry" />
        </mxCell>
        <mxCell id="ujBAATEU8BTA8kRRQ1sV-7" value="" style="rounded=0;whiteSpace=wrap;html=1;" vertex="1" parent="1">
          <mxGeometry x="520" y="320" width="120" height="60" as="geometry" />
        </mxCell>
        <mxCell id="ujBAATEU8BTA8kRRQ1sV-10" value="nullptr" style="ellipse;whiteSpace=wrap;html=1;" vertex="1" parent="1">
          <mxGeometry x="680" y="330" width="80" height="40" as="geometry" />
        </mxCell>
        <mxCell id="ujBAATEU8BTA8kRRQ1sV-12" value="next" style="rounded=0;whiteSpace=wrap;html=1;fillColor=#e1d5e7;strokeColor=#9673a6;" vertex="1" parent="1">
          <mxGeometry x="280" y="330" width="40" height="40" as="geometry" />
        </mxCell>
        <mxCell id="ujBAATEU8BTA8kRRQ1sV-13" value="next" style="rounded=0;whiteSpace=wrap;html=1;fillColor=#e1d5e7;strokeColor=#9673a6;" vertex="1" parent="1">
          <mxGeometry x="440" y="330" width="40" height="40" as="geometry" />
        </mxCell>
        <mxCell id="ujBAATEU8BTA8kRRQ1sV-14" value="next" style="rounded=0;whiteSpace=wrap;html=1;fillColor=#e1d5e7;strokeColor=#9673a6;" vertex="1" parent="1">
          <mxGeometry x="600" y="330" width="40" height="40" as="geometry" />
        </mxCell>
        <mxCell id="ujBAATEU8BTA8kRRQ1sV-16" style="edgeStyle=orthogonalEdgeStyle;rounded=0;orthogonalLoop=1;jettySize=auto;html=1;exitX=1;exitY=0.5;exitDx=0;exitDy=0;entryX=0;entryY=0.5;entryDx=0;entryDy=0;" edge="1" parent="1" source="ujBAATEU8BTA8kRRQ1sV-15" target="ujBAATEU8BTA8kRRQ1sV-5">
          <mxGeometry relative="1" as="geometry" />
        </mxCell>
        <mxCell id="ujBAATEU8BTA8kRRQ1sV-15" value="pHead" style="ellipse;whiteSpace=wrap;html=1;" vertex="1" parent="1">
          <mxGeometry x="80" y="330" width="80" height="40" as="geometry" />
        </mxCell>
        <mxCell id="ujBAATEU8BTA8kRRQ1sV-18" style="edgeStyle=orthogonalEdgeStyle;rounded=0;orthogonalLoop=1;jettySize=auto;html=1;exitX=0.5;exitY=1;exitDx=0;exitDy=0;" edge="1" parent="1" source="ujBAATEU8BTA8kRRQ1sV-17" target="ujBAATEU8BTA8kRRQ1sV-15">
          <mxGeometry relative="1" as="geometry" />
        </mxCell>
        <mxCell id="ujBAATEU8BTA8kRRQ1sV-17" value="ppHead" style="ellipse;whiteSpace=wrap;html=1;" vertex="1" parent="1">
          <mxGeometry x="80" y="240" width="80" height="40" as="geometry" />
        </mxCell>
        <mxCell id="ujBAATEU8BTA8kRRQ1sV-19" value="&lt;font color=&quot;#808080&quot; style=&quot;font-size: 14px;&quot;&gt;Node** ppHead = &amp;amp;pHead&lt;/font&gt;&lt;div style=&quot;font-size: 14px;&quot;&gt;&lt;font color=&quot;#808080&quot; style=&quot;font-size: 14px;&quot;&gt;Node*&amp;nbsp; pHead&amp;nbsp; &amp;nbsp;= *ppHead&lt;/font&gt;&lt;/div&gt;" style="text;html=1;align=left;verticalAlign=middle;whiteSpace=wrap;rounded=0;" vertex="1" parent="1">
          <mxGeometry x="200" y="240" width="180" height="50" as="geometry" />
        </mxCell>
      </root>
    </mxGraphModel>
  </diagram>
</mxfile>
